<?xml version="1.0" encoding="UTF-8" standalone="no"?>
<!DOCTYPE svg PUBLIC "-//W3C//DTD SVG 1.1//EN" "http://www.w3.org/Graphics/SVG/1.1/DTD/svg11.dtd">
<svg xmlns="http://www.w3.org/2000/svg" xmlns:xlink="http://www.w3.org/1999/xlink" version="1.1" width="392.82234pt" height="334.55119pt" viewBox="0 0 392.82234 334.55119">
<g enable-background="new">
<g>
<path transform="matrix(1,0,0,-1,0,334.55119)" d="M 197.586 326.551 C 185.406 326.45 172.676 318.559 161.16 305.848 C 150.133 293.68 140.203 276.981 133.113 258 C 120.422 271.977 105.211 281.133 88.836 282.848 C 71.309 284.688 52.184 270.789 36.863 249.176 C 21.539 227.563 10 197.942 8.238 167.274 C 6.41 135.496 15.305 106.672 30.238 85.7 C 45.168 64.727 66.246 51.551 88.688 51.551 C 111.129 51.551 132.461 64.743 147.535 85.723 C 151.941 91.856 155.812 98.653 159.035 106 C 171.258 95.024 185.645 88.575 200.637 88.575 C 209.027 88.575 217.27 90.582 225.062 94.274 C 228.355 73.957 236.875 53.395 249.086 37.598 C 263.723 19.282 283.309 8 304.035 8 C 326.426 8 347.754 21.157 362.836 42.149 C 377.918 63.145 386.828 92.039 384.438 123.825 C 382.211 153.399 372.52 181.114 358.238 202.051 C 343.953 222.985 325.023 237.219 304.211 239.399 C 303.125 239.512 302.016 239.559 300.91 239.551 C 292.664 239.485 284.141 236.145 275.887 230.301 C 271.02 255.266 261.352 277.879 248.586 294.95 C 235.383 312.606 218.828 324.403 200.812 326.399 C 199.742 326.52 198.664 326.559 197.586 326.551 Z M 197.637 323.348 C 198.598 323.36 199.527 323.305 200.461 323.2 C 217.32 321.332 233.195 310.223 246.035 293.051 C 258.711 276.098 268.355 253.301 273.035 228.149 C 265.77 222.454 258.762 214.871 252.41 205.899 C 252.406 205.895 252.414 205.879 252.41 205.875 C 251.863 205.102 251.297 204.317 250.762 203.524 C 250.758 203.52 250.766 203.504 250.762 203.5 C 250.598 203.258 250.426 203.02 250.262 202.774 C 249.945 202.317 249.629 201.864 249.312 201.375 C 249.066 201 248.871 200.664 248.688 200.375 C 248.316 199.793 247.953 199.215 247.586 198.625 C 247.062 197.782 246.547 196.934 246.035 196.075 C 245.535 195.235 245.016 194.383 244.512 193.5 C 244.309 193.145 244.109 192.782 243.91 192.426 C 243.188 192.204 242.645 191.481 242.637 190.727 C 242.629 190.762 242.609 190.536 242.512 190.25 C 242.379 189.868 242.152 189.293 241.863 188.625 C 241.805 188.496 241.723 188.313 241.66 188.176 C 241.254 187.403 240.832 186.618 240.438 185.825 C 240.406 185.77 240.391 185.707 240.363 185.649 C 239.645 184.207 238.941 182.75 238.262 181.274 C 238.242 181.235 238.23 181.192 238.211 181.149 C 238.148 181.008 238.074 180.868 238.012 180.727 C 237.344 179.274 236.691 177.813 236.062 176.325 C 234.652 173.297 233.156 169.946 231.637 166.325 C 226.012 152.911 220.367 136.161 220.613 120.899 C 220.691 115.825 221.77 111.914 223.562 109.051 C 223.586 108.621 223.613 108.192 223.637 107.801 C 223.652 107.489 223.664 107.153 223.688 106.774 C 223.695 106.614 223.707 106.516 223.711 106.477 C 223.754 105.813 223.812 105.164 223.863 104.551 C 223.867 104.493 223.883 104.434 223.887 104.375 C 223.898 104.227 223.898 104.075 223.91 103.926 C 223.965 103.262 224.02 102.598 224.086 101.926 C 224.156 101.211 224.246 100.489 224.336 99.774 C 224.418 99.059 224.492 98.336 224.586 97.625 C 216.914 93.84 208.828 91.774 200.637 91.774 C 186.227 91.774 172.293 98.106 160.359 109.125 C 167.297 126.243 170.73 146.118 169.137 167.301 C 166.914 196.852 157.238 224.547 142.961 245.477 C 140.609 248.922 138.133 252.188 135.535 255.25 C 142.535 274.563 152.531 291.559 163.535 303.7 C 174.703 316.02 186.848 323.262 197.637 323.352 Z M 85.586 279.875 C 86.57 279.883 87.547 279.852 88.512 279.75 C 108.031 277.704 126.262 264.211 140.188 243.801 C 142.121 240.961 143.977 237.989 145.738 234.899 C 145.613 234.723 145.473 234.567 145.363 234.375 C 143.941 231.938 143.266 228.61 143.535 224.524 C 143.805 220.504 144.602 216.383 146.137 213.2 C 146.902 211.614 147.824 210.223 149.086 209.25 C 150.352 208.274 151.953 207.75 153.711 207.899 C 155.039 208.012 156.223 208.516 157.211 209.274 C 161.719 196.121 164.703 181.84 165.812 167.098 C 167.195 148.684 164.695 131.282 159.387 115.926 C 156.094 113.676 143.992 106.481 123.688 106.274 C 108.379 106.121 98.465 115.676 95.488 119 C 100.105 113.215 103.082 105.887 123.188 102.75 C 134.762 100.946 150.324 106.766 157.012 109.598 C 153.684 101.512 149.559 94.082 144.812 87.473 C 130.188 67.118 109.762 54.649 88.688 54.649 C 67.609 54.649 47.453 67.075 32.961 87.426 C 18.473 107.774 9.723 135.996 11.512 167.125 C 13.238 197.164 24.613 226.329 39.586 247.45 C 53.621 267.25 70.801 279.723 85.586 279.875 Z M 171.086 274.598 C 169.699 274.547 168.379 273.895 167.238 272.95 C 165.93 271.868 164.773 270.375 163.762 268.625 C 161.738 265.125 160.309 260.606 159.988 256.325 C 159.664 252.043 160.555 248.723 162.285 246.426 C 164.02 244.125 166.551 242.911 169.238 242.676 C 171.922 242.438 174.52 243.239 176.41 245.25 C 178.301 247.262 179.465 250.352 179.785 254.598 C 180.105 258.848 179.559 263.536 178.262 267.325 C 177.613 269.219 176.777 270.879 175.711 272.176 C 174.648 273.469 173.293 274.434 171.688 274.575 C 171.484 274.594 171.285 274.606 171.086 274.598 Z M 221.586 273.524 C 221.379 273.532 221.172 273.52 220.961 273.5 C 219.277 273.348 217.855 272.352 216.738 270.973 C 215.617 269.598 214.746 267.801 214.062 265.774 C 212.691 261.727 212.098 256.715 212.438 252.176 C 212.773 247.633 213.996 244.336 215.988 242.2 C 217.977 240.063 220.699 239.223 223.535 239.473 C 226.371 239.727 229.066 241.028 230.887 243.473 C 232.707 245.922 233.625 249.426 233.285 254 C 232.945 258.571 231.449 263.411 229.312 267.149 C 228.242 269.02 227.016 270.625 225.637 271.774 C 224.43 272.782 223.043 273.473 221.586 273.524 Z M 171.461 272.176 C 172.258 272.106 173.062 271.649 173.863 270.676 C 174.66 269.7 175.402 268.254 175.988 266.551 C 176.629 264.676 177.055 262.493 177.285 260.25 C 176.305 261.696 174.867 262.789 173.086 263.098 C 172.555 263.192 172.031 263.219 171.512 263.176 C 169.949 263.039 168.484 262.305 167.285 261.223 C 165.691 259.786 164.484 257.715 164.012 255.301 C 163.539 252.883 163.867 250.559 164.812 248.676 C 165.602 247.098 166.891 245.801 168.535 245.2 C 166.805 245.539 165.293 246.403 164.188 247.875 C 162.883 249.606 162.094 252.258 162.387 256.125 C 162.676 259.989 164.02 264.282 165.836 267.426 C 166.746 268.996 167.766 270.278 168.762 271.098 C 169.758 271.922 170.664 272.246 171.461 272.176 Z M 194.035 271.473 C 194.004 271.469 193.969 271.457 193.938 271.45 C 193.887 271.434 193.832 271.422 193.785 271.399 C 193.77 271.399 193.754 271.379 193.738 271.375 C 193.723 271.364 193.699 271.364 193.688 271.348 C 193.668 271.348 193.652 271.352 193.637 271.348 C 193.621 271.336 193.625 271.313 193.613 271.301 C 193.5 271.227 193.387 271.137 193.312 271.024 C 193.297 271.012 193.301 271.012 193.285 271 C 193.258 270.95 193.207 270.879 193.188 270.825 C 193.18 270.813 193.191 270.809 193.188 270.801 C 193.184 270.77 193.164 270.754 193.16 270.723 C 193.156 270.715 193.145 270.684 193.137 270.676 C 193.133 270.657 193.141 270.645 193.137 270.625 C 193.125 270.579 193.117 270.524 193.113 270.473 C 193.113 270.473 193.047 270.004 193.035 269.926 C 192.82 268.34 190.73 252.934 188.988 234.25 C 187.145 214.551 185.727 191.805 187.512 179.024 C 188.855 169.414 192.797 165.235 197.188 163.926 C 198.91 163.411 200.68 163.305 202.363 163.375 C 202.82 163.395 203.27 163.434 203.711 163.473 C 204.699 163.559 205.676 163.704 206.562 163.848 C 206.594 163.856 206.629 163.844 206.66 163.848 C 209.949 164.403 213.613 170.039 212.785 170.723 C 211.961 171.411 210.168 167.207 206.238 166.024 C 205.023 165.84 203.648 165.637 202.336 165.598 C 200.969 165.567 199.598 165.704 198.336 166.176 C 196.652 166.805 195.121 167.996 193.785 170.274 C 192.453 172.551 191.348 175.95 190.762 180.95 C 189.324 193.262 190.387 215.676 191.836 234.899 C 193.285 254.121 195.113 270.223 195.113 270.223 C 195.109 270.243 195.09 270.258 195.086 270.274 C 195.094 270.293 195.105 270.305 195.113 270.325 C 195.109 270.344 195.113 270.356 195.113 270.375 C 195.109 270.59 195.047 270.797 194.938 270.973 C 194.898 271.036 194.836 271.098 194.785 271.149 C 194.777 271.168 194.773 271.184 194.762 271.2 C 194.668 271.282 194.574 271.36 194.461 271.399 C 194.453 271.407 194.445 271.391 194.438 271.399 C 194.312 271.45 194.168 271.485 194.035 271.473 Z M 221.188 271.098 C 222.051 271.176 223.02 270.817 224.086 269.926 C 225.152 269.036 226.246 267.641 227.211 265.95 C 228.672 263.391 229.859 260.153 230.488 256.926 C 228.738 260.684 225.746 263.286 222.41 263.399 C 221.84 263.418 221.254 263.36 220.66 263.2 C 218.344 262.579 216.688 260.649 215.863 258.25 C 215.035 255.852 214.969 252.946 215.762 249.973 C 216.555 247.004 218.07 244.496 219.988 242.825 C 220.355 242.504 220.762 242.231 221.16 241.973 C 219.852 242.215 218.711 242.805 217.738 243.848 C 216.258 245.438 215.125 248.157 214.812 252.348 C 214.5 256.543 215.094 261.329 216.336 265 C 216.957 266.836 217.754 268.395 218.613 269.45 C 219.469 270.504 220.32 271.024 221.188 271.098 Z M 105.562 251.723 C 105.039 251.739 104.508 251.668 103.961 251.524 C 102.715 251.2 101.809 250.438 100.91 249.551 C 100.016 248.661 99.168 247.606 98.438 246.598 C 96.977 244.59 95.91 242.7 95.91 242.7 C 95.5 241.965 95.789 240.926 96.523 240.512 C 97.258 240.102 98.301 240.391 98.711 241.125 C 98.711 241.125 99.703 242.891 101.035 244.723 C 101.703 245.641 102.457 246.579 103.16 247.274 C 103.863 247.973 104.539 248.391 104.762 248.45 C 105.512 248.645 107.016 248.246 108.262 247.598 C 109.508 246.954 110.438 246.223 110.438 246.223 C 111.09 245.7 112.164 245.821 112.688 246.473 C 113.211 247.129 113.09 248.2 112.438 248.723 C 112.438 248.723 111.285 249.621 109.738 250.426 C 108.574 251.028 107.129 251.684 105.562 251.723 Z M 300.961 236.348 C 301.949 236.36 302.891 236.301 303.863 236.2 C 323.434 234.149 341.691 220.657 355.613 200.25 C 369.531 179.844 379.051 152.606 381.238 123.575 C 383.574 92.528 374.855 64.371 360.238 44.024 C 345.617 23.676 325.168 11.2 304.035 11.2 C 284.473 11.2 265.754 21.868 251.586 39.598 C 244.027 49.063 237.789 60.524 233.438 73.399 C 240.516 71.176 255.336 67.133 266.461 68.45 C 286.562 70.829 289.543 76.387 294.16 80.774 C 291.281 78.317 281.406 71.008 265.961 71.125 C 248.434 71.258 237.031 75.332 232.113 77.551 C 230.234 83.809 228.793 90.371 227.863 97.176 C 227.633 98.844 227.453 100.524 227.285 102.223 C 227.285 102.235 227.289 102.243 227.285 102.25 C 227.281 102.317 227.27 102.383 227.262 102.45 C 227.188 103.223 227.125 104.008 227.062 104.801 C 227.047 104.981 227.027 105.149 227.012 105.325 C 229.559 103.536 232.609 102.907 235.512 103.125 C 239.109 103.395 242.566 104.887 245.238 107.125 C 247.906 109.36 249.852 112.411 249.863 115.848 C 249.879 116.801 249.023 117.68 248.074 117.684 C 247.125 117.692 246.258 116.825 246.262 115.875 C 246.254 113.809 245.016 111.618 242.938 109.875 C 240.855 108.133 237.996 106.907 235.238 106.7 C 232.48 106.493 229.879 107.235 227.863 109.325 C 225.844 111.414 224.305 115.039 224.211 120.973 C 223.984 135.293 229.422 151.711 234.961 164.926 C 237.73 171.532 240.516 177.336 242.613 181.723 C 243.66 183.918 244.535 185.762 245.16 187.2 C 245.477 187.918 245.727 188.532 245.91 189.075 C 246.004 189.348 246.102 189.59 246.16 189.848 C 246.543 190.536 246.926 191.223 247.312 191.899 C 247.789 192.739 248.281 193.579 248.785 194.426 C 249.281 195.258 249.781 196.086 250.285 196.899 C 250.605 197.414 250.938 197.918 251.262 198.426 C 251.305 198.493 251.344 198.559 251.387 198.625 C 251.555 198.887 251.699 199.102 251.836 199.325 C 254.957 204.11 258.258 208.543 261.688 212.551 C 261.691 212.555 261.684 212.571 261.688 212.575 C 274.254 227.258 288.457 236.25 300.961 236.348 Z M 111.238 232.075 C 108.582 232.133 106.168 230.543 104.535 227.774 C 102.91 225.012 101.941 221.09 101.836 216.125 C 101.73 211.227 102.137 206.125 103.363 202.098 C 103.973 200.09 104.777 198.329 105.938 197 C 107.098 195.668 108.652 194.813 110.438 194.774 C 112.188 194.739 113.727 195.559 114.961 196.825 C 116.195 198.09 117.156 199.821 117.91 201.801 C 119.426 205.762 120.18 210.801 120.285 215.723 C 120.395 220.707 119.516 224.696 117.91 227.524 C 116.305 230.36 113.887 232.02 111.238 232.075 Z M 134.512 231.598 C 134.379 231.582 134.25 231.539 134.137 231.473 C 134.129 231.465 134.121 231.457 134.113 231.45 C 134.008 231.391 133.914 231.317 133.836 231.227 C 133.828 231.207 133.82 231.192 133.812 231.176 C 133.773 231.121 133.738 231.063 133.711 231 C 133.629 230.821 133.605 230.618 133.637 230.426 C 133.637 230.407 133.637 230.391 133.637 230.375 C 133.645 230.36 133.652 230.34 133.66 230.325 C 133.66 230.309 133.66 230.293 133.66 230.274 C 133.66 230.274 138.094 216.094 142.66 199.024 C 147.23 181.957 151.938 161.954 152.535 150.602 C 152.777 145.989 152.25 142.715 151.312 140.426 C 150.371 138.133 149.039 136.793 147.488 135.926 C 146.32 135.274 145.012 134.914 143.66 134.7 C 143.352 134.653 143.047 134.61 142.738 134.575 C 142.652 134.567 142.57 134.559 142.488 134.551 C 142.426 134.543 142.371 134.532 142.312 134.524 C 141.438 134.45 140.566 134.411 139.738 134.375 C 139.703 134.375 139.668 134.375 139.637 134.375 C 138.734 134.34 137.871 134.313 137.062 134.25 C 136.539 134.211 136.098 133.7 136.137 133.176 C 136.176 132.653 136.688 132.211 137.211 132.25 C 137.941 132.305 138.777 132.325 139.688 132.352 C 139.719 132.352 139.754 132.348 139.785 132.352 C 140.68 132.375 141.648 132.426 142.637 132.524 C 143.082 132.567 143.531 132.61 143.988 132.676 C 145.652 132.911 147.375 133.329 148.988 134.102 C 153.09 136.067 156.285 140.52 156.035 149.426 C 155.703 161.262 150.594 181.524 145.562 198.95 C 140.789 215.481 136.211 228.985 135.738 230.375 C 135.715 230.446 135.586 230.875 135.586 230.875 C 135.574 230.918 135.555 230.961 135.535 231 C 135.527 231.016 135.52 231.036 135.512 231.051 C 135.504 231.059 135.496 231.067 135.488 231.075 C 135.48 231.102 135.473 231.125 135.461 231.149 C 135.453 231.157 135.445 231.168 135.438 231.176 C 135.406 231.219 135.375 231.262 135.336 231.301 C 135.32 231.309 135.305 231.317 135.285 231.325 C 135.191 231.411 135.082 231.481 134.961 231.524 C 134.945 231.536 134.93 231.543 134.91 231.551 C 134.895 231.551 134.879 231.551 134.863 231.551 C 134.844 231.559 134.828 231.567 134.812 231.575 C 134.797 231.575 134.777 231.575 134.762 231.575 C 134.711 231.586 134.664 231.594 134.613 231.598 C 134.578 231.602 134.543 231.602 134.512 231.598 Z M 146.113 221.325 C 147.809 220.704 149.684 220.379 151.711 220.551 C 152.07 220.579 152.418 220.653 152.762 220.75 C 154.062 217.743 155.281 214.676 156.41 211.524 C 156.402 211.516 156.395 211.508 156.387 211.5 C 155.562 210.657 154.688 210.196 153.562 210.102 C 152.379 210 151.449 210.317 150.562 211 C 149.68 211.68 148.855 212.762 148.188 214.149 C 146.98 216.657 146.426 218.207 146.113 221.325 Z M 117.988 216.348 C 117.988 216.157 117.992 215.969 117.988 215.774 C 117.887 211.094 117.156 206.246 115.812 202.723 C 115.141 200.965 114.309 199.571 113.41 198.649 C 112.512 197.727 111.598 197.278 110.488 197.301 C 109.316 197.325 108.438 197.805 107.613 198.75 C 106.789 199.692 106.078 201.141 105.535 202.926 C 104.562 206.125 104.188 210.383 104.188 214.625 C 105.816 213.668 107.676 213.043 109.711 213 C 112.961 212.93 115.883 214.243 117.988 216.348 Z M 264.438 179.375 C 261.98 179.278 259.598 177.758 257.613 175.45 C 257.449 175.262 257.293 175.051 257.137 174.848 C 257.133 174.844 257.113 174.856 257.113 174.848 C 257.047 174.789 256.988 174.723 256.938 174.649 C 256.855 174.547 256.789 174.43 256.711 174.325 C 256.473 174.004 256.238 173.672 256.012 173.325 C 255.922 173.184 255.824 173.043 255.738 172.899 C 255.508 172.532 255.301 172.141 255.086 171.75 C 254.832 171.282 254.594 170.801 254.363 170.301 C 253.441 168.313 252.68 166.094 252.188 163.676 C 251.324 159.454 251.348 155.36 252.113 151.95 C 252.129 151.871 252.152 151.797 252.188 151.723 C 252.203 151.692 252.219 151.657 252.238 151.625 C 252.324 151.262 252.406 150.899 252.512 150.551 C 253.621 146.864 255.777 143.996 258.812 143.274 C 261.848 142.551 264.895 144.184 267.336 147.024 C 269.781 149.864 271.727 153.985 272.711 158.801 C 273.695 163.618 273.547 168.239 272.438 171.926 C 271.324 175.61 269.172 178.477 266.137 179.2 C 265.566 179.336 265.004 179.399 264.438 179.375 Z M 264.336 176.875 C 264.52 176.891 264.707 176.883 264.887 176.875 C 265.145 176.864 265.387 176.836 265.637 176.774 C 267.637 176.297 269.285 174.332 270.238 171.176 C 271.188 168.016 271.367 163.778 270.461 159.348 C 269.559 154.922 267.754 151.133 265.66 148.7 C 263.566 146.266 261.312 145.25 259.312 145.723 C 257.422 146.176 255.855 147.961 254.887 150.825 C 259.207 150.829 263.512 154.188 265.637 159.176 C 266.961 162.282 267.227 165.516 266.535 168.301 C 265.848 171.082 264.16 173.454 261.586 174.551 C 261.207 174.711 260.828 174.829 260.438 174.926 C 261.738 176.098 263.062 176.774 264.336 176.875 Z M 173.035 158.45 C 172.957 158.461 172.887 158.45 172.812 158.426 C 171.727 157.977 175.586 150.809 176.562 149.524 C 177.25 148.567 177.988 147.582 178.812 146.575 C 183.039 141.411 188.996 135.977 196.062 135.325 C 203.125 134.676 210.438 138.868 216.062 143.102 C 218.012 145.746 227.145 152.61 225.613 153.477 C 225.098 153.332 216.746 147.168 215.211 146.075 C 209.965 142.379 203.078 138.821 196.688 139 C 190.387 139.18 184.672 143.739 180.562 148.426 C 176.094 153.754 174.227 158.254 173.035 158.45 Z M 173.035 158.45 "/>
</g>
</g>
</svg>
