<?xml version="1.0" encoding="UTF-8"?>
<svg xmlns="http://www.w3.org/2000/svg" xmlns:xlink="http://www.w3.org/1999/xlink" width="293.31015pt" height="283.527069pt" viewBox="0 0 293.31015 283.527069" version="1.1">
<defs>
<clipPath id="clip1">
  <path d="M 0 0 L 293.308594 0 L 293.308594 283.527344 L 0 283.527344 Z M 0 0 "/>
</clipPath>
<clipPath id="clip3">
  <path d="M 86 20 L 293.308594 20 L 293.308594 261 L 86 261 Z M 86 20 "/>
</clipPath>
<clipPath id="clip4">
  <path d="M 13 88 L 232 88 L 232 283.527344 L 13 283.527344 Z M 13 88 "/>
</clipPath>
<clipPath id="clip2">
  <rect width="294" height="284"/>
</clipPath>
<g id="surface4" clip-path="url(#clip2)">
<path style=" stroke:none;fill-rule:nonzero;fill:rgb(83.135986%,92.939758%,70.979309%);fill-opacity:1;" d="M 160.199219 155.390625 C 160.199219 155.390625 154.628906 186.050781 153.058594 196.746094 C 152.058594 203.5625 144.539063 206.003906 137.652344 200.3125 C 128.589844 192.808594 7.996094 87.640625 7.996094 87.640625 C 7.996094 87.640625 -16.054688 61.976563 19.265625 50.921875 C 54.578125 39.871094 199.230469 1.015625 199.230469 1.015625 C 204.5625 -0.480469 209.019531 -0.480469 215.011719 2.082031 C 225.636719 6.628906 255.214844 17.414063 255.214844 17.414063 L 88.019531 68.035156 C 81.21875 70.175781 66.601563 80.15625 81.632813 93.703125 C 96.660156 107.25 160.199219 155.390625 160.199219 155.390625 "/>
<g clip-path="url(#clip3)" clip-rule="nonzero">
<path style=" stroke:none;fill-rule:nonzero;fill:rgb(43.528748%,78.038025%,18.431091%);fill-opacity:1;" d="M 122.582031 114.203125 L 90.273438 88.890625 C 90.273438 88.890625 74.867188 78.910156 109.804688 68.929688 C 144.75 58.945313 263.105469 21.691406 263.105469 21.691406 C 263.105469 21.691406 302.554688 12.78125 291.285156 58.410156 C 280.015625 104.042969 252.960938 213.132813 251.835938 217.410156 C 250.707031 221.6875 249.578125 232.746094 237.554688 240.582031 C 225.53125 248.425781 203.363281 260.90625 203.363281 260.90625 C 203.363281 260.90625 238.753906 102.230469 239.054688 100.835938 C 241.6875 88.714844 240.183594 72.671875 215.011719 81.226563 C 189.835938 89.78125 122.582031 114.203125 122.582031 114.203125 "/>
</g>
<g clip-path="url(#clip4)" clip-rule="nonzero">
<path style=" stroke:none;fill-rule:nonzero;fill:rgb(59.999084%,84.312439%,37.646484%);fill-opacity:1;" d="M 180.53125 104.445313 C 180.53125 104.445313 168.789063 173.757813 165.414063 192.8125 C 162.421875 209.714844 156.027344 223.472656 133.484375 206.363281 C 110.9375 189.246094 13.253906 101.191406 13.253906 101.191406 L 13.253906 135.0625 C 13.234375 139.609375 13.921875 143.671875 18.886719 148.605469 C 26.792969 156.460938 153.167969 271.796875 155.644531 274.089844 C 171.804688 289.0625 190.964844 288.355469 198.101563 256.269531 C 207.328125 214.804688 231.25 103.730469 231.25 101.59375 C 231.25 99.453125 233.886719 84.472656 218.101563 89.828125 C 202.324219 95.175781 180.53125 104.445313 180.53125 104.445313 "/>
</g>
</g>
</defs>
<g id="surface1">
<g clip-path="url(#clip1)" clip-rule="nonzero">
<use xlink:href="#surface4"/>
</g>
</g>
</svg>
